<svg xmlns="http://www.w3.org/2000/svg" width="1534" height="311" viewBox="0 0 1534 311">
<g>
<path d="M 37.41 286.25 C37.91,289.03 37.76,289.96 36.80,289.86 C27.88,288.92 10.21,286.71 9.25,286.43 C8.29,286.15 8.00,280.40 8.00,262.05 L 8.00 238.03 L 73.12 151.27 C108.94,103.55 138.55,64.28 138.92,64.00 C139.29,63.72 140.63,62.02 141.90,60.21 L 144.19 56.92 L 159.35 71.67 C167.68,79.78 174.65,86.79 174.84,87.24 C175.29,88.32 169.94,94.85 131.57,140.00 C124.32,148.52 108.25,167.65 95.84,182.50 C70.49,212.85 49.71,237.65 38.41,251.04 L 30.81 260.05 L 32.01 265.27 C32.66,268.15 33.99,273.20 34.96,276.50 C35.94,279.80 37.04,284.19 37.41,286.25 ZM 884.28 289.03 C872.30,291.10 860.81,293.11 858.75,293.51 C856.69,293.90 855.00,293.97 855.00,293.66 C855.00,293.35 855.96,288.24 857.14,282.30 C858.32,276.36 859.24,270.65 859.19,269.60 C859.14,268.56 857.77,266.31 856.14,264.60 C854.51,262.90 844.70,251.36 834.34,238.96 C792.31,188.67 773.34,166.13 767.11,159.11 L 760.56 151.71 L 765.03 147.83 C767.49,145.70 772.82,141.40 776.87,138.28 L 784.25 132.60 L 787.37 136.11 C791.56,140.80 815.81,170.27 824.27,180.95 C828.00,185.65 831.60,190.18 832.29,191.00 C838.42,198.41 861.15,226.32 863.50,229.32 C868.67,235.90 889.79,262.39 903.77,279.80 C905.67,282.17 906.96,284.37 906.64,284.69 C906.32,285.01 896.26,286.96 884.28,289.03 ZM 247.00 200.00 L 247.00 251.00 L 201.00 251.00 L 201.00 200.00 ZM 193.80 229.50 L 193.50 250.50 L 170.75 250.77 L 148.00 251.04 L 148.00 200.00 L 192.88 200.00 L 193.49 204.25 C193.82,206.59 193.96,217.95 193.80,229.50 ZM 1157.75 284.67 C1152.13,286.71 1142.98,286.28 1138.02,283.75 C1130.93,280.13 1128.01,275.59 1126.83,266.36 C1125.49,255.94 1126.53,241.84 1129.00,237.00 C1137.01,221.30 1162.38,222.45 1168.69,238.80 C1171.12,245.11 1171.11,268.57 1168.67,274.13 C1166.69,278.63 1162.05,283.11 1157.75,284.67 ZM 1069.50 245.50 L 1068.96 285.00 L 1058.00 285.00 L 1058.00 227.00 L 1070.79 227.00 L 1076.50 237.00 C1079.64,242.50 1082.57,247.00 1083.01,247.00 C1083.46,247.00 1085.46,244.01 1087.47,240.35 C1089.48,236.69 1092.28,232.19 1093.68,230.35 C1096.02,227.28 1096.69,227.00 1101.62,227.00 L 1107.00 227.00 L 1107.00 285.00 L 1096.00 285.00 L 1096.00 265.80 L 1096.00 263.85 C1096.00,253.20 1096.01,248.55 1094.94,248.29 C1094.11,248.09 1092.64,250.50 1090.05,254.78 C1089.85,255.11 1089.64,255.45 1089.43,255.80 C1086.63,260.40 1084.65,262.60 1083.10,262.83 C1080.50,263.21 1079.63,262.24 1073.73,252.50 ZM 193.67 170.19 L 193.50 192.50 L 170.75 192.77 L 148.00 193.04 L 148.00 188.99 C148.00,179.50 155.73,164.60 164.23,157.70 C166.58,155.80 170.76,153.10 173.53,151.71 C178.97,148.98 190.01,146.41 192.38,147.32 C193.61,147.79 193.81,151.44 193.67,170.19 ZM 246.52 188.75 L 247.18 193.00 L 201.00 193.00 L 201.00 146.72 L 206.25 147.26 C209.14,147.56 214.61,149.05 218.42,150.58 C232.57,156.24 243.86,171.59 246.52,188.75 ZM 1374.03 283.75 C1369.13,286.23 1359.08,286.74 1353.50,284.80 C1347.04,282.55 1341.52,275.04 1342.17,269.38 C1342.48,266.70 1342.76,266.55 1347.48,266.52 C1352.12,266.50 1352.50,266.69 1352.98,269.23 C1353.93,274.21 1356.40,276.00 1362.34,276.00 C1368.57,276.00 1371.00,274.11 1371.00,269.24 C1371.00,265.07 1369.08,263.41 1361.52,261.08 C1347.47,256.74 1343.01,252.56 1343.00,243.71 C1343.00,233.75 1349.32,227.23 1359.94,226.27 C1372.17,225.16 1380.83,231.38 1382.29,242.32 C1382.90,246.91 1381.71,247.65 1375.75,246.38 C1372.24,245.63 1371.50,245.02 1370.79,242.29 C1370.34,240.53 1368.97,238.39 1367.76,237.54 C1362.56,233.90 1354.00,237.33 1354.00,243.05 C1354.00,246.58 1356.23,248.16 1364.50,250.48 C1377.59,254.14 1383.00,259.62 1383.00,269.22 C1383.00,276.12 1380.22,280.62 1374.03,283.75 ZM 1289.00 276.00 L 1289.00 285.00 L 1251.00 285.00 L 1251.00 227.00 L 1289.00 227.00 L 1289.00 237.00 L 1263.00 237.00 L 1263.00 251.00 L 1285.00 251.00 L 1285.00 261.00 L 1263.00 261.00 L 1263.00 276.00 ZM 1218.43 275.75 L 1215.59 285.00 L 1203.07 285.00 L 1199.60 273.75 C1193.62,254.37 1186.00,228.63 1186.00,227.80 C1186.00,227.36 1188.68,227.00 1191.96,227.00 L 1197.92 227.00 L 1198.95 231.25 C1199.52,233.59 1201.07,239.10 1202.40,243.50 C1203.74,247.90 1205.84,255.02 1207.08,259.33 C1208.42,263.96 1209.62,266.61 1210.04,265.83 C1210.43,265.10 1211.98,260.00 1213.48,254.50 C1214.98,249.00 1217.36,240.56 1218.76,235.75 L 1221.31 227.00 L 1233.16 227.00 L 1232.45 230.25 C1232.06,232.04 1229.39,240.93 1226.51,250.00 C1223.62,259.08 1219.99,270.66 1218.43,275.75 ZM 748.00 255.58 L 748.00 271.00 L 716.00 271.00 L 716.00 237.00 L 731.39 237.00 C744.51,237.00 746.88,237.23 747.39,238.58 C747.73,239.45 748.00,247.10 748.00,255.58 ZM 784.79 256.00 L 784.50 270.50 L 753.00 271.05 L 753.00 237.00 L 768.48 237.00 C783.70,237.00 783.97,237.04 784.52,239.25 C784.82,240.49 784.94,248.02 784.79,256.00 ZM 784.00 227.73 L 784.00 231.52 L 768.92 231.51 C760.63,231.50 753.65,231.31 753.42,231.08 C753.19,230.85 753.00,223.96 753.00,215.77 L 753.00 200.88 L 757.75 201.56 C764.16,202.49 772.49,206.66 776.07,210.73 C780.38,215.64 784.00,223.40 784.00,227.73 ZM 1141.31 273.59 C1144.58,276.40 1151.30,276.88 1154.64,274.54 C1158.37,271.92 1159.19,268.03 1158.83,254.51 L 1158.50 241.83 L 1155.23 238.92 C1151.33,235.43 1146.47,235.06 1142.77,237.97 C1138.57,241.27 1137.80,244.68 1138.17,258.50 C1138.49,270.97 1138.55,271.22 1141.31,273.59 ZM 747.50 201.50 L 747.50 231.50 L 742.00 231.56 C738.97,231.59 731.90,231.47 726.28,231.28 L 716.06 230.93 L 716.66 227.72 C719.05,214.70 731.40,202.56 743.02,201.79 ZM 1037.39 283.42 C1036.94,284.59 1035.39,285.00 1031.39,285.00 L 1026.00 285.00 L 1026.00 227.00 L 1031.39 227.00 C1035.39,227.00 1036.94,227.41 1037.39,228.58 C1037.73,229.45 1038.00,241.79 1038.00,256.00 C1038.00,270.21 1037.73,282.55 1037.39,283.42 ZM 1322.00 227.00 L 1322.00 285.00 L 1311.00 285.00 L 1311.00 227.00 ZM 1156.45 218.36 C1153.18,222.65 1152.57,223.00 1148.48,223.00 C1144.16,223.00 1144.07,222.94 1145.00,220.49 C1148.00,212.61 1148.69,212.00 1154.53,212.00 C1157.54,212.00 1160.00,212.39 1160.00,212.86 C1160.00,213.33 1158.40,215.80 1156.45,218.36 Z" fill="rgb(92,168,173)"/>
<path d="M 388.05 273.25 C385.68,275.86 383.44,278.00 383.06,278.00 C382.68,278.00 380.95,276.40 379.22,274.44 C375.19,269.89 307.33,188.81 304.00,184.57 C300.91,180.63 246.38,115.08 238.64,105.99 C236.46,103.44 198.43,57.76 185.10,41.69 C181.08,36.84 178.03,32.64 178.31,32.36 C178.82,31.85 206.03,36.27 262.00,45.96 C360.58,63.01 394.85,69.04 397.50,69.79 L 400.50 70.64 L 401.00 84.98 L 401.50 99.33 L 414.00 103.20 C420.88,105.34 427.29,107.34 428.25,107.66 C429.90,108.20 430.00,105.40 430.00,58.18 C430.00,30.64 430.34,7.98 430.75,7.81 C431.16,7.64 438.81,7.63 447.75,7.80 L 464.00 8.10 L 464.00 45.05 C464.00,65.37 464.34,82.00 464.75,82.00 C465.16,81.99 485.98,85.41 511.00,89.58 C546.39,95.49 557.31,97.66 560.14,99.34 C564.11,101.69 589.00,124.81 589.00,126.14 C589.00,126.59 587.99,127.17 586.75,127.42 C533.35,138.29 510.39,143.28 508.82,144.35 C507.90,144.98 496.69,156.75 483.92,170.50 C471.15,184.25 457.95,198.43 454.58,202.00 C432.15,225.80 395.05,265.53 388.05,273.25 ZM 1126.18 160.12 C1123.99,160.82 1112.91,161.47 1098.75,161.74 C1079.50,162.10 1074.91,161.93 1074.49,160.84 C1074.21,160.10 1074.10,139.02 1074.24,114.00 L 1074.50 68.50 L 1097.43 68.23 C1115.43,68.02 1121.46,68.28 1125.49,69.45 C1136.11,72.54 1141.93,79.43 1143.47,90.72 C1144.49,98.19 1141.98,105.12 1136.27,110.67 C1133.82,113.05 1132.29,115.00 1132.87,115.00 C1134.61,115.00 1140.98,121.06 1142.75,124.40 C1143.85,126.47 1144.41,130.01 1144.44,135.05 C1144.47,141.21 1144.01,143.52 1141.94,147.55 C1139.22,152.88 1132.78,158.01 1126.18,160.12 ZM 1280.91 114.00 L 1274.50 103.50 L 1273.50 161.50 L 1264.25 161.79 L 1255.00 162.08 L 1254.82 129.79 C1254.72,112.03 1254.54,92.78 1254.42,87.00 C1254.30,81.22 1254.44,74.59 1254.74,72.25 L 1255.27 68.00 L 1264.89 68.01 L 1274.50 68.03 L 1277.34 73.26 C1278.91,76.14 1281.88,81.20 1283.96,84.50 C1286.03,87.80 1292.61,98.69 1298.58,108.70 C1304.54,118.72 1309.61,126.72 1309.84,126.49 C1310.07,126.27 1310.31,113.12 1310.38,97.29 L 1310.50 68.50 L 1330.02 67.93 L 1329.50 161.50 L 1310.50 161.50 L 1305.50 153.73 C1300.62,146.14 1293.87,135.24 1280.91,114.00 ZM 1176.69 159.75 C1175.75,161.85 1175.06,162.00 1166.34,162.00 C1161.20,162.00 1157.00,161.62 1157.00,161.16 C1157.00,160.05 1160.05,149.92 1173.03,108.00 C1181.96,79.13 1183.93,72.55 1184.23,70.50 C1184.50,68.64 1185.40,68.48 1197.17,68.22 L 1209.81 67.94 L 1213.01 78.22 C1214.77,83.87 1217.03,90.97 1218.04,94.00 C1219.06,97.03 1222.65,108.28 1226.02,119.00 C1229.39,129.73 1233.69,143.23 1235.58,149.00 C1237.46,154.78 1239.00,160.07 1239.00,160.75 C1239.00,162.51 1220.66,162.51 1219.22,160.75 C1218.66,160.06 1217.34,156.57 1216.30,153.00 L 1214.39 146.50 L 1197.84 146.23 L 1181.29 145.95 L 1179.49 151.73 C1178.50,154.90 1177.24,158.51 1176.69,159.75 ZM 999.95 153.73 L 997.50 161.50 L 987.75 161.79 C979.78,162.02 978.00,161.81 978.00,160.63 C978.00,159.83 979.28,155.20 980.84,150.34 C982.41,145.48 985.14,136.77 986.91,131.00 C988.69,125.22 990.51,119.38 990.96,118.00 C991.42,116.62 992.76,112.12 993.95,108.00 C995.14,103.88 996.94,98.03 997.96,95.00 C998.98,91.97 1001.28,84.66 1003.07,78.75 L 1006.32 68.00 L 1030.92 68.00 L 1032.00 72.00 C1032.59,74.21 1034.15,79.27 1035.45,83.25 C1036.76,87.24 1040.38,98.60 1043.49,108.50 C1046.61,118.40 1051.60,133.97 1054.58,143.09 C1057.56,152.22 1060.00,160.20 1060.00,160.84 C1060.00,161.64 1057.04,162.00 1050.54,162.00 L 1049.89 162.00 C1044.92,162.00 1042.44,162.00 1040.86,160.82 C1039.22,159.59 1038.53,157.09 1037.02,152.00 L 1035.38 146.50 L 1018.89 146.23 L 1002.40 145.95 ZM 1453.50 154.00 L 1451.29 161.50 L 1441.53 161.79 L 1431.76 162.08 L 1432.27 159.29 C1432.75,156.62 1441.22,128.43 1444.37,119.00 C1445.19,116.53 1447.07,110.45 1448.54,105.50 C1450.01,100.55 1453.23,90.09 1455.69,82.25 L 1460.16 68.00 L 1472.58 68.00 C1482.65,68.00 1485.00,68.27 1485.00,69.42 C1485.00,70.20 1487.68,79.09 1490.95,89.17 C1505.29,133.34 1513.73,160.55 1513.32,161.25 C1512.51,162.63 1495.34,162.12 1494.14,160.67 C1493.54,159.94 1492.11,156.33 1490.97,152.65 L 1488.90 145.95 L 1472.31 146.23 L 1455.71 146.50 ZM 1402.00 159.85 C1397.27,162.08 1394.95,162.48 1385.50,162.69 C1379.45,162.82 1373.38,162.56 1372.00,162.12 C1363.68,159.40 1356.74,153.82 1352.33,146.30 C1350.08,142.46 1349.68,140.25 1348.86,127.23 C1347.81,110.39 1348.45,97.09 1350.72,88.69 C1352.53,82.00 1358.62,74.48 1365.45,70.47 C1374.24,65.33 1393.34,65.06 1402.90,69.95 C1411.56,74.39 1419.61,86.56 1420.22,96.17 L 1420.50 100.50 L 1401.24 101.07 L 1400.57 97.51 C1399.70,92.87 1396.54,87.58 1393.41,85.53 C1389.99,83.30 1380.40,83.16 1376.35,85.29 C1374.61,86.20 1372.14,88.65 1370.85,90.73 C1368.58,94.37 1368.50,95.23 1368.50,115.00 C1368.50,137.86 1369.06,140.23 1375.30,144.04 C1379.75,146.76 1389.30,146.72 1393.81,143.98 C1397.04,142.00 1400.93,135.37 1400.98,131.75 C1401.00,130.20 1402.16,130.00 1411.13,130.00 L 1421.26 130.00 L 1420.59 134.25 C1419.64,140.30 1414.89,149.92 1410.91,153.88 C1409.03,155.73 1405.03,158.42 1402.00,159.85 ZM 967.79 153.77 L 967.50 161.50 L 936.25 161.76 L 905.00 162.03 L 905.00 68.00 L 924.98 68.00 L 925.24 106.75 L 925.50 145.50 L 946.79 145.77 L 968.08 146.04 ZM 1094.43 144.69 C1094.79,145.62 1097.18,145.99 1102.72,145.96 C1118.42,145.87 1123.82,143.14 1124.66,134.87 C1125.72,124.52 1119.84,120.73 1103.50,121.23 L 1094.50 121.50 L 1094.21 132.44 C1094.06,138.45 1094.16,143.96 1094.43,144.69 ZM 1094.67 106.33 C1095.65,107.32 1109.87,107.10 1114.50,106.03 C1120.21,104.71 1123.00,101.09 1123.00,95.00 C1123.00,91.28 1122.43,89.44 1120.59,87.31 C1118.23,84.56 1117.91,84.49 1106.09,84.17 L 1094.00 83.83 L 1094.00 94.75 C1094.00,100.75 1094.30,105.97 1094.67,106.33 ZM 1186.37 128.25 C1185.91,129.84 1186.89,130.00 1197.43,130.00 C1206.69,130.00 1209.00,129.72 1209.00,128.60 C1209.00,127.83 1207.16,121.42 1204.91,114.35 C1202.65,107.28 1200.40,99.49 1199.90,97.04 C1198.45,89.96 1197.35,90.10 1195.17,97.63 C1194.08,101.41 1191.77,109.45 1190.03,115.50 C1188.30,121.55 1186.65,127.29 1186.37,128.25 ZM 1461.02 129.25 C1461.01,129.66 1466.18,130.00 1472.50,130.00 C1478.82,130.00 1484.00,129.64 1484.00,129.19 C1484.00,128.75 1483.08,125.49 1481.97,121.94 C1480.85,118.40 1479.55,114.15 1479.08,112.50 C1478.61,110.85 1477.21,106.12 1475.98,102.00 C1474.75,97.88 1473.56,93.86 1473.34,93.08 C1473.10,92.25 1472.59,92.04 1472.09,92.58 C1470.85,93.91 1461.12,126.18 1461.02,129.25 ZM 1007.81 129.47 C1008.10,129.76 1013.21,130.00 1019.17,130.00 C1027.68,130.00 1030.00,129.71 1030.00,128.63 C1030.00,127.87 1028.37,122.36 1026.38,116.38 C1024.39,110.39 1022.02,102.66 1021.12,99.19 C1020.21,95.72 1019.05,92.80 1018.53,92.69 C1018.01,92.59 1017.05,94.30 1016.40,96.50 C1015.74,98.70 1013.77,105.22 1012.02,111.00 C1008.33,123.18 1007.06,128.73 1007.81,129.47 Z" fill="rgb(252,101,64)"/>
<path d="M 615.61 287.25 C613.81,288.89 607.21,289.00 506.85,289.00 C428.57,289.00 400.00,288.70 400.00,287.88 C400.00,287.26 406.23,280.17 413.84,272.13 C429.23,255.86 433.75,251.00 453.04,230.00 C460.36,222.02 469.54,212.11 473.43,207.96 C477.32,203.81 485.23,195.29 491.00,189.02 C496.77,182.75 504.41,174.52 507.96,170.73 C511.52,166.94 515.00,163.01 515.71,162.00 C517.43,159.54 519.14,159.17 628.00,137.48 C679.42,127.24 728.92,117.34 738.00,115.48 L 738.48 115.39 C758.38,111.32 761.44,110.69 761.91,111.52 C762.00,111.67 761.99,111.87 761.99,112.11 L 761.99 112.14 C761.99,113.26 735.52,145.62 723.64,159.05 C721.91,161.00 716.90,167.03 712.50,172.45 C708.10,177.87 697.75,190.27 689.50,200.01 C662.28,232.14 651.06,245.46 648.26,248.97 C646.74,250.87 643.91,254.25 641.96,256.47 C640.01,258.68 636.41,262.98 633.97,266.00 C631.53,269.02 629.29,271.73 629.01,272.00 C628.72,272.27 626.02,275.42 623.01,279.00 C619.99,282.58 616.66,286.29 615.61,287.25 Z" fill="rgb(254,219,126)"/>
<path d="M 0.00 155.50 L 0.00 0.00 L 767.00 0.00 L 1534.00 0.00 L 1534.00 155.50 L 1534.00 311.00 L 767.00 311.00 L 0.00 311.00 L 0.00 155.50 ZM 884.28 289.03 C896.26,286.96 906.32,285.01 906.64,284.69 C906.96,284.37 905.67,282.17 903.77,279.80 C889.79,262.39 868.67,235.90 863.50,229.32 C861.15,226.32 838.42,198.41 832.29,191.00 C831.60,190.18 828.00,185.65 824.27,180.95 C815.81,170.27 791.56,140.80 787.37,136.11 L 784.25 132.60 L 776.87 138.28 C772.82,141.40 767.49,145.70 765.03,147.83 L 760.56 151.71 L 767.11 159.11 C773.34,166.13 792.31,188.67 834.34,238.96 C844.70,251.36 854.51,262.90 856.14,264.60 C857.77,266.31 859.14,268.56 859.19,269.60 C859.24,270.65 858.32,276.36 857.14,282.30 C855.96,288.24 855.00,293.35 855.00,293.66 C855.00,293.97 856.69,293.90 858.75,293.51 C860.81,293.11 872.30,291.10 884.28,289.03 ZM 37.41 286.25 C37.04,284.19 35.94,279.80 34.96,276.50 C33.99,273.20 32.66,268.15 32.01,265.27 L 30.81 260.05 L 38.41 251.04 C49.71,237.65 70.49,212.85 95.84,182.50 C108.25,167.65 124.32,148.52 131.57,140.00 C169.94,94.85 175.29,88.32 174.84,87.24 C174.65,86.79 167.68,79.78 159.35,71.67 L 144.19 56.92 L 141.90 60.21 C140.63,62.02 139.29,63.72 138.92,64.00 C138.55,64.28 108.94,103.55 73.12,151.27 L 8.00 238.03 L 8.00 262.05 C8.00,280.40 8.29,286.15 9.25,286.43 C10.21,286.71 27.88,288.92 36.80,289.86 C37.76,289.96 37.91,289.03 37.41,286.25 ZM 615.61 287.25 C616.66,286.29 619.99,282.58 623.01,279.00 C626.02,275.42 628.72,272.27 629.01,272.00 C629.29,271.73 631.53,269.02 633.97,266.00 C636.41,262.98 640.01,258.68 641.96,256.47 C643.91,254.25 646.74,250.87 648.26,248.97 C651.06,245.46 662.28,232.14 689.50,200.01 C697.75,190.27 708.10,177.87 712.50,172.45 C716.90,167.03 721.91,161.00 723.64,159.05 C735.52,145.62 761.99,113.26 761.99,112.14 C762.00,110.56 762.16,110.54 738.00,115.48 C728.92,117.34 679.42,127.24 628.00,137.48 C519.14,159.17 517.43,159.54 515.71,162.00 C515.00,163.01 511.52,166.94 507.96,170.73 C504.41,174.52 496.77,182.75 491.00,189.02 C485.23,195.29 477.32,203.81 473.43,207.96 C469.54,212.11 460.36,222.02 453.04,230.00 C433.75,251.00 429.23,255.86 413.84,272.13 C406.23,280.17 400.00,287.26 400.00,287.88 C400.00,288.70 428.57,289.00 506.85,289.00 C607.21,289.00 613.81,288.89 615.61,287.25 ZM 1157.75 284.67 C1162.05,283.11 1166.69,278.63 1168.67,274.13 C1171.11,268.57 1171.12,245.11 1168.69,238.80 C1162.38,222.45 1137.01,221.30 1129.00,237.00 C1126.53,241.84 1125.49,255.94 1126.83,266.36 C1128.01,275.59 1130.93,280.13 1138.02,283.75 C1142.98,286.28 1152.13,286.71 1157.75,284.67 ZM 1374.03 283.75 C1380.22,280.62 1383.00,276.12 1383.00,269.22 C1383.00,259.62 1377.59,254.14 1364.50,250.48 C1356.23,248.16 1354.00,246.58 1354.00,243.05 C1354.00,237.33 1362.56,233.90 1367.76,237.54 C1368.97,238.39 1370.34,240.53 1370.79,242.29 C1371.50,245.02 1372.24,245.63 1375.75,246.38 C1381.71,247.65 1382.90,246.91 1382.29,242.32 C1380.83,231.38 1372.17,225.16 1359.94,226.27 C1349.32,227.23 1343.00,233.75 1343.00,243.71 C1343.01,252.56 1347.47,256.74 1361.52,261.08 C1369.08,263.41 1371.00,265.07 1371.00,269.24 C1371.00,274.11 1368.57,276.00 1362.34,276.00 C1356.40,276.00 1353.93,274.21 1352.98,269.23 C1352.50,266.69 1352.12,266.50 1347.48,266.52 C1342.76,266.55 1342.48,266.70 1342.17,269.38 C1341.52,275.04 1347.04,282.55 1353.50,284.80 C1359.08,286.74 1369.13,286.23 1374.03,283.75 ZM 1037.39 283.42 C1037.73,282.55 1038.00,270.21 1038.00,256.00 C1038.00,241.79 1037.73,229.45 1037.39,228.58 C1036.94,227.41 1035.39,227.00 1031.39,227.00 L 1026.00 227.00 L 1026.00 256.00 L 1026.00 285.00 L 1031.39 285.00 C1035.39,285.00 1036.94,284.59 1037.39,283.42 ZM 1069.23 265.25 L 1069.50 245.50 L 1073.73 252.50 C1079.63,262.24 1080.50,263.21 1083.10,262.83 C1084.65,262.60 1086.63,260.40 1089.43,255.80 C1096.22,244.64 1096.00,244.30 1096.00,265.80 L 1096.00 285.00 L 1101.50 285.00 L 1107.00 285.00 L 1107.00 256.00 L 1107.00 227.00 L 1101.62 227.00 C1096.69,227.00 1096.02,227.28 1093.68,230.35 C1092.28,232.19 1089.48,236.69 1087.47,240.35 C1085.46,244.01 1083.46,247.00 1083.01,247.00 C1082.57,247.00 1079.64,242.50 1076.50,237.00 L 1070.79 227.00 L 1064.39 227.00 L 1058.00 227.00 L 1058.00 256.00 L 1058.00 285.00 L 1063.48 285.00 L 1068.96 285.00 L 1069.23 265.25 ZM 1218.43 275.75 C1219.99,270.66 1223.62,259.08 1226.51,250.00 C1229.39,240.93 1232.06,232.04 1232.45,230.25 L 1233.16 227.00 L 1227.23 227.00 L 1221.31 227.00 L 1218.76 235.75 C1217.36,240.56 1214.98,249.00 1213.48,254.50 C1211.98,260.00 1210.43,265.10 1210.04,265.83 C1209.62,266.61 1208.42,263.96 1207.08,259.33 C1205.84,255.02 1203.74,247.90 1202.40,243.50 C1201.07,239.10 1199.52,233.59 1198.95,231.25 L 1197.92 227.00 L 1191.96 227.00 C1188.68,227.00 1186.00,227.36 1186.00,227.80 C1186.00,228.63 1193.62,254.37 1199.60,273.75 L 1203.07 285.00 L 1209.33 285.00 L 1215.59 285.00 L 1218.43 275.75 ZM 1289.00 280.50 L 1289.00 276.00 L 1276.00 276.00 L 1263.00 276.00 L 1263.00 268.50 L 1263.00 261.00 L 1274.00 261.00 L 1285.00 261.00 L 1285.00 256.00 L 1285.00 251.00 L 1274.00 251.00 L 1263.00 251.00 L 1263.00 244.00 L 1263.00 237.00 L 1276.00 237.00 L 1289.00 237.00 L 1289.00 232.00 L 1289.00 227.00 L 1270.00 227.00 L 1251.00 227.00 L 1251.00 256.00 L 1251.00 285.00 L 1270.00 285.00 L 1289.00 285.00 L 1289.00 280.50 ZM 1322.00 256.00 L 1322.00 227.00 L 1316.50 227.00 L 1311.00 227.00 L 1311.00 256.00 L 1311.00 285.00 L 1316.50 285.00 L 1322.00 285.00 L 1322.00 256.00 ZM 388.05 273.25 C395.05,265.53 432.15,225.80 454.58,202.00 C457.95,198.43 471.15,184.25 483.92,170.50 C496.69,156.75 507.90,144.98 508.82,144.35 C510.39,143.28 533.35,138.29 586.75,127.42 C587.99,127.17 589.00,126.59 589.00,126.14 C589.00,124.81 564.11,101.69 560.14,99.34 C557.31,97.66 546.39,95.49 511.00,89.58 C485.98,85.41 465.16,81.99 464.75,82.00 C464.34,82.00 464.00,65.37 464.00,45.05 L 464.00 8.10 L 447.75 7.80 C438.81,7.63 431.16,7.64 430.75,7.81 C430.34,7.98 430.00,30.64 430.00,58.18 C430.00,105.40 429.90,108.20 428.25,107.66 C427.29,107.34 420.88,105.34 414.00,103.20 L 401.50 99.33 L 401.00 84.98 L 400.50 70.64 L 397.50 69.79 C394.85,69.04 360.58,63.01 262.00,45.96 C206.03,36.27 178.82,31.85 178.31,32.36 C178.03,32.64 181.08,36.84 185.10,41.69 C198.43,57.76 236.46,103.44 238.64,105.99 C246.38,115.08 300.91,180.63 304.00,184.57 C307.33,188.81 375.19,269.89 379.22,274.44 C380.95,276.40 382.68,278.00 383.06,278.00 C383.44,278.00 385.68,275.86 388.05,273.25 ZM 748.00 255.58 C748.00,247.10 747.73,239.45 747.39,238.58 C746.88,237.23 744.51,237.00 731.39,237.00 L 716.00 237.00 L 716.00 254.00 L 716.00 271.00 L 732.00 271.00 L 748.00 271.00 L 748.00 255.58 ZM 784.79 256.00 C784.94,248.02 784.82,240.49 784.52,239.25 C783.97,237.04 783.70,237.00 768.48,237.00 L 753.00 237.00 L 753.00 254.03 L 753.00 271.05 L 768.75 270.78 L 784.50 270.50 L 784.79 256.00 ZM 193.80 229.50 C193.96,217.95 193.82,206.59 193.49,204.25 L 192.88 200.00 L 170.44 200.00 L 148.00 200.00 L 148.00 225.52 L 148.00 251.04 L 170.75 250.77 L 193.50 250.50 L 193.80 229.50 ZM 247.00 225.50 L 247.00 200.00 L 224.00 200.00 L 201.00 200.00 L 201.00 225.50 L 201.00 251.00 L 224.00 251.00 L 247.00 251.00 L 247.00 225.50 ZM 747.50 216.50 L 747.50 201.50 L 743.02 201.79 C731.40,202.56 719.05,214.70 716.66,227.72 L 716.06 230.93 L 726.28 231.28 C731.90,231.47 738.97,231.59 742.00,231.56 L 747.50 231.50 L 747.50 216.50 ZM 784.00 227.73 C784.00,223.40 780.38,215.64 776.07,210.73 C772.49,206.66 764.16,202.49 757.75,201.56 L 753.00 200.88 L 753.00 215.77 C753.00,223.96 753.19,230.85 753.42,231.08 C753.65,231.31 760.63,231.50 768.92,231.51 L 784.00 231.52 L 784.00 227.73 ZM 1156.45 218.36 C1158.40,215.80 1160.00,213.33 1160.00,212.86 C1160.00,212.39 1157.54,212.00 1154.53,212.00 C1148.69,212.00 1148.00,212.61 1145.00,220.49 C1144.07,222.94 1144.16,223.00 1148.48,223.00 C1152.57,223.00 1153.18,222.65 1156.45,218.36 ZM 193.67 170.19 C193.81,151.44 193.61,147.79 192.38,147.32 C190.01,146.41 178.97,148.98 173.53,151.71 C170.76,153.10 166.58,155.80 164.23,157.70 C155.73,164.60 148.00,179.50 148.00,188.99 L 148.00 193.04 L 170.75 192.77 L 193.50 192.50 L 193.67 170.19 ZM 246.52 188.75 C243.86,171.59 232.57,156.24 218.42,150.58 C214.61,149.05 209.14,147.56 206.25,147.26 L 201.00 146.72 L 201.00 169.86 L 201.00 193.00 L 224.09 193.00 L 247.18 193.00 L 246.52 188.75 ZM 1402.00 159.85 C1405.03,158.42 1409.03,155.73 1410.91,153.88 C1414.89,149.92 1419.64,140.30 1420.59,134.25 L 1421.26 130.00 L 1411.13 130.00 C1402.16,130.00 1401.00,130.20 1400.98,131.75 C1400.93,135.37 1397.04,142.00 1393.81,143.98 C1389.30,146.72 1379.75,146.76 1375.30,144.04 C1369.06,140.23 1368.50,137.86 1368.50,115.00 C1368.50,95.23 1368.58,94.37 1370.85,90.73 C1372.14,88.65 1374.61,86.20 1376.35,85.29 C1380.40,83.16 1389.99,83.30 1393.41,85.53 C1396.54,87.58 1399.70,92.87 1400.57,97.51 L 1401.24 101.07 L 1410.87 100.78 L 1420.50 100.50 L 1420.22 96.17 C1419.61,86.56 1411.56,74.39 1402.90,69.95 C1393.34,65.06 1374.24,65.33 1365.45,70.47 C1358.62,74.48 1352.53,82.00 1350.72,88.69 C1348.45,97.09 1347.81,110.39 1348.86,127.23 C1349.68,140.25 1350.08,142.46 1352.33,146.30 C1356.74,153.82 1363.68,159.40 1372.00,162.12 C1373.38,162.56 1379.45,162.82 1385.50,162.69 C1394.95,162.48 1397.27,162.08 1402.00,159.85 ZM 967.79 153.77 L 968.08 146.04 L 946.79 145.77 L 925.50 145.50 L 925.24 106.75 L 924.98 68.00 L 914.99 68.00 L 905.00 68.00 L 905.00 115.01 L 905.00 162.03 L 936.25 161.76 L 967.50 161.50 L 967.79 153.77 ZM 999.95 153.73 L 1002.40 145.95 L 1018.89 146.23 L 1035.38 146.50 L 1037.02 152.00 C1040.06,162.21 1039.77,162.00 1050.54,162.00 C1057.04,162.00 1060.00,161.64 1060.00,160.84 C1060.00,160.20 1057.56,152.22 1054.58,143.09 C1051.60,133.97 1046.61,118.40 1043.49,108.50 C1040.38,98.60 1036.76,87.24 1035.45,83.25 C1034.15,79.27 1032.59,74.21 1032.00,72.00 L 1030.92 68.00 L 1018.62 68.00 L 1006.32 68.00 L 1003.07 78.75 C1001.28,84.66 998.98,91.97 997.96,95.00 C996.94,98.03 995.14,103.88 993.95,108.00 C992.76,112.12 991.42,116.62 990.96,118.00 C990.51,119.38 988.69,125.22 986.91,131.00 C985.14,136.77 982.41,145.48 980.84,150.34 C979.28,155.20 978.00,159.83 978.00,160.63 C978.00,161.81 979.78,162.02 987.75,161.79 L 997.50 161.50 L 999.95 153.73 ZM 1126.18 160.12 C1132.78,158.01 1139.22,152.88 1141.94,147.55 C1144.01,143.52 1144.47,141.21 1144.44,135.05 C1144.41,130.01 1143.85,126.47 1142.75,124.40 C1140.98,121.06 1134.61,115.00 1132.87,115.00 C1132.29,115.00 1133.82,113.05 1136.27,110.67 C1141.98,105.12 1144.49,98.19 1143.47,90.72 C1141.93,79.43 1136.11,72.54 1125.49,69.45 C1121.46,68.28 1115.43,68.02 1097.43,68.23 L 1074.50 68.50 L 1074.24 114.00 C1074.10,139.02 1074.21,160.10 1074.49,160.84 C1074.91,161.93 1079.50,162.10 1098.75,161.74 C1112.91,161.47 1123.99,160.82 1126.18,160.12 ZM 1176.69 159.75 C1177.24,158.51 1178.50,154.90 1179.49,151.73 L 1181.29 145.95 L 1197.84 146.23 L 1214.39 146.50 L 1216.30 153.00 C1217.34,156.57 1218.66,160.06 1219.22,160.75 C1220.66,162.51 1239.00,162.51 1239.00,160.75 C1239.00,160.07 1237.46,154.78 1235.58,149.00 C1233.69,143.23 1229.39,129.73 1226.02,119.00 C1222.65,108.28 1219.06,97.03 1218.04,94.00 C1217.03,90.97 1214.77,83.87 1213.01,78.22 L 1209.81 67.94 L 1197.17 68.22 C1185.40,68.48 1184.50,68.64 1184.23,70.50 C1183.93,72.55 1181.96,79.13 1173.03,108.00 C1160.05,149.92 1157.00,160.05 1157.00,161.16 C1157.00,161.62 1161.20,162.00 1166.34,162.00 C1175.06,162.00 1175.75,161.85 1176.69,159.75 ZM 1274.00 132.50 L 1274.50 103.50 L 1280.91 114.00 C1293.87,135.24 1300.62,146.14 1305.50,153.73 L 1310.50 161.50 L 1320.00 161.50 L 1329.50 161.50 L 1329.76 114.71 L 1330.02 67.93 L 1320.26 68.21 L 1310.50 68.50 L 1310.38 97.29 C1310.31,113.12 1310.07,126.27 1309.84,126.49 C1309.61,126.72 1304.54,118.72 1298.58,108.70 C1292.61,98.69 1286.03,87.80 1283.96,84.50 C1281.88,81.20 1278.91,76.14 1277.34,73.26 L 1274.50 68.03 L 1264.89 68.01 L 1255.27 68.00 L 1254.74 72.25 C1254.44,74.59 1254.30,81.22 1254.42,87.00 C1254.54,92.78 1254.72,112.03 1254.82,129.79 L 1255.00 162.08 L 1264.25 161.79 L 1273.50 161.50 L 1274.00 132.50 ZM 1453.50 154.00 L 1455.71 146.50 L 1472.31 146.23 L 1488.90 145.95 L 1490.97 152.65 C1492.11,156.33 1493.54,159.94 1494.14,160.67 C1495.34,162.12 1512.51,162.63 1513.32,161.25 C1513.73,160.55 1505.29,133.34 1490.95,89.17 C1487.68,79.09 1485.00,70.20 1485.00,69.42 C1485.00,68.27 1482.65,68.00 1472.58,68.00 L 1460.16 68.00 L 1455.69 82.25 C1453.23,90.09 1450.01,100.55 1448.54,105.50 C1447.07,110.45 1445.19,116.53 1444.37,119.00 C1441.22,128.43 1432.75,156.62 1432.27,159.29 L 1431.76 162.08 L 1441.53 161.79 L 1451.29 161.50 L 1453.50 154.00 ZM 1141.31 273.59 C1138.55,271.22 1138.49,270.97 1138.17,258.50 C1137.80,244.68 1138.57,241.27 1142.77,237.97 C1146.47,235.06 1151.33,235.43 1155.23,238.92 L 1158.50 241.83 L 1158.83 254.51 C1159.19,268.03 1158.37,271.92 1154.64,274.54 C1151.30,276.88 1144.58,276.40 1141.31,273.59 ZM 1007.81 129.47 C1007.06,128.73 1008.33,123.18 1012.02,111.00 C1013.77,105.22 1015.74,98.70 1016.40,96.50 C1017.05,94.30 1018.01,92.59 1018.53,92.69 C1019.05,92.80 1020.21,95.72 1021.12,99.19 C1022.02,102.66 1024.39,110.39 1026.38,116.38 C1028.37,122.36 1030.00,127.87 1030.00,128.63 C1030.00,129.71 1027.68,130.00 1019.17,130.00 C1013.21,130.00 1008.10,129.76 1007.81,129.47 ZM 1094.43 144.69 C1094.16,143.96 1094.06,138.45 1094.21,132.44 L 1094.50 121.50 L 1103.50 121.23 C1119.84,120.73 1125.72,124.52 1124.66,134.87 C1123.82,143.14 1118.42,145.87 1102.72,145.96 C1097.18,145.99 1094.79,145.62 1094.43,144.69 ZM 1094.67 106.33 C1094.30,105.97 1094.00,100.75 1094.00,94.75 L 1094.00 83.83 L 1106.09 84.17 C1117.91,84.49 1118.23,84.56 1120.59,87.31 C1122.43,89.44 1123.00,91.28 1123.00,95.00 C1123.00,101.09 1120.21,104.71 1114.50,106.03 C1109.87,107.10 1095.65,107.32 1094.67,106.33 ZM 1186.37 128.25 C1186.65,127.29 1188.30,121.55 1190.03,115.50 C1191.77,109.45 1194.08,101.41 1195.17,97.63 C1197.35,90.10 1198.45,89.96 1199.90,97.04 C1200.40,99.49 1202.65,107.28 1204.91,114.35 C1207.16,121.42 1209.00,127.83 1209.00,128.60 C1209.00,129.72 1206.69,130.00 1197.43,130.00 C1186.89,130.00 1185.91,129.84 1186.37,128.25 ZM 1461.02 129.25 C1461.12,126.18 1470.85,93.91 1472.09,92.58 C1472.59,92.04 1473.10,92.25 1473.34,93.08 C1473.56,93.86 1474.75,97.88 1475.98,102.00 C1477.21,106.12 1478.61,110.85 1479.08,112.50 C1479.55,114.15 1480.85,118.40 1481.97,121.94 C1483.08,125.49 1484.00,128.75 1484.00,129.19 C1484.00,129.64 1478.82,130.00 1472.50,130.00 C1466.18,130.00 1461.01,129.66 1461.02,129.25 Z" fill="rgb(254,254,253)"/>
</g>
</svg>